<?xml version="1.0" encoding="UTF-8"?>
<svg id="uuid-30dae147-3396-4ce3-8d77-8e574b0a97c8" data-name="LOGO 2 - copie 2" xmlns="http://www.w3.org/2000/svg" viewBox="0 0 352.53 501">
  <g id="uuid-0cc34652-4416-4cb5-8ac5-8abffad94b0f" data-name="bouclier - copie 2">
    <g id="uuid-ab38fe59-b6e5-4ef8-8a72-b25a1e77e7f1" data-name="BOUCLIER GAUCHE - copie 2">
      <g id="uuid-4e7de242-7d5f-446a-91dd-6b05a000bc52" data-name="BOUCLIER TRAIT GAUCHE EXTERNE">
        <path d="M176.01,418.29c15.83-9.25,30-19.95,42.8-32.46,12.93-12.63,24.46-27.1,34.27-43,16.64-26.99,28.72-58.6,35.9-93.94,6.44-31.74,7.66-60.66,7.55-79.33-.07-11.06-.6-19.5-1.07-25.31-57.47-12.74-103.77-46.89-119.44-54.53h0s0,0,0,0c3.63,1.87,59.56,30.69,129.61,44.98,0,0,28.35,196.8-129.61,283.59" style="fill: #009c9e;"/>
        <path id="uuid-0ed50075-97c3-40d8-a195-5a4d77a83d29" data-name="BOUCLIER TRAIT GAUCHE INTERNE" d="M305.18,134.71c-67.18-13.71-121.61-41.15-129.16-44.98h0s0,0,0,0h0c3.63,1.87,59.85,29.95,129.9,44.24,0,0,28.06,209.74-129.9,296.52v.1s0-.01,0-.02v-12.28c157.16-86.98,129.16-283.59,129.16-283.59Z" style="fill: #00273c; fill-rule: evenodd;"/>
        <path id="uuid-a62d5c61-4619-4608-9328-29280d10b8ef" data-name="BOUCLIER PLEIN GAUCHE" d="M296.56,169.75c.11,18.67-1.1,47.59-7.55,79.33-7.18,35.35-19.26,66.95-35.9,93.94-9.81,15.9-21.34,30.37-34.27,43-12.6,12.31-27.29,23.34-42.83,32.5V89.72c16.36,8.29,62.88,41.72,119.47,54.27.47,5.81,1,14.69,1.07,25.75Z" style="fill: #006f49; fill-rule: evenodd;"/>
      </g>
      <g id="uuid-07761db4-0ec1-4db7-bc40-4a433bf388f3" data-name="BOUCLIER TRAIT GAUCHE EXTERNE">
        <path d="M175.92,418.29c-15.83-9.25-30-19.95-42.8-32.46-12.93-12.63-24.46-27.1-34.27-43-16.64-26.99-28.72-58.6-35.9-93.94-6.44-31.74-7.66-60.66-7.55-79.33.07-11.06.6-19.5,1.07-25.31,57.47-12.74,103.77-46.89,119.44-54.53h0s0,0,0,0c-3.63,1.87-59.56,30.69-129.61,44.98,0,0-28.35,196.8,129.61,283.59" style="fill: #019d9e;"/>
        <path id="uuid-8bbb6c06-858f-41cf-be04-a8cc90c0f170" data-name="BOUCLIER TRAIT GAUCHE INTERNE" d="M46.76,134.71c67.18-13.71,121.61-41.15,129.16-44.98h0s0,0,0,0h0c-3.63,1.87-59.85,29.95-129.9,44.24,0,0-28.06,209.74,129.9,296.52v.1s0-.01,0-.02v-12.28C18.76,331.31,46.76,134.71,46.76,134.71Z" style="fill: #006f49; fill-rule: evenodd;"/>
        <path id="uuid-cbc879f9-6c80-43d7-9f46-e527db2b586f" data-name="BOUCLIER PLEIN GAUCHE" d="M55.38,169.75c-.11,18.67,1.1,47.59,7.55,79.33,7.18,35.35,19.26,66.95,35.9,93.94,9.81,15.9,21.34,30.37,34.27,43,12.6,12.31,27.29,23.34,42.83,32.5V89.72c-16.36,8.29-62.88,41.72-119.47,54.27-.47,5.81-1,14.69-1.07,25.75Z" style="fill: #00273c; fill-rule: evenodd;"/>
      </g>
    </g>
    <g id="uuid-2149a6a9-db0c-4804-9a66-3516b38c77b7" data-name="EMPREINTE DROITE">
      <g id="uuid-37038707-1e10-4252-a4b0-4bdb7fe729cd" data-name="EMPREINTES">
        <path d="M179.51,336.42c.04-.57-.38-1.06-.95-1.1-2.77-.21-5.51-.51-8.21-.89v2.08c2.65.37,5.34.66,8.06.87.57.04,1.06-.38,1.1-.95Z" style="fill: #fff;"/>
        <path d="M195.43,330.39c.56-.07.97-.58.9-1.15-.07-.56-.58-.97-1.15-.9-6.23.76-12.55.92-18.78.45-2.03-.15-4.05-.37-6.05-.65v2.08c1.95.27,3.92.48,5.9.63,6.37.48,12.82.32,19.18-.46Z" style="fill: #fff;"/>
        <path d="M205.4,322.06c.55-.15.88-.71.73-1.26-.15-.55-.71-.88-1.26-.73-11.22,3-23,3.35-34.52,1.39v2.06c11.91,1.98,23.89,1.52,35.05-1.46Z" style="fill: #fff;"/>
        <path d="M213.88,310.59c-.12,0-.23.03-.35.07-2.48.96-5.04,1.81-7.62,2.52-9.23,2.55-18.71,3.44-28.17,2.64-.57-.05-1.07.37-1.11.94-.05.57.37,1.07.94,1.11,9.71.82,19.43-.09,28.89-2.71,2.65-.73,5.28-1.6,7.82-2.59.53-.21.79-.8.59-1.33-.16-.42-.56-.67-.98-.66Z" style="fill: #fff;"/>
        <path d="M173.58,316.19c.08-.56-.31-1.09-.87-1.17-.79-.11-1.57-.24-2.35-.38v2.09c.69.12,1.37.23,2.06.32.56.08,1.09-.31,1.17-.87Z" style="fill: #fff;"/>
        <path d="M186.93,239.35c3.9-1.39,5.96-5.68,4.6-9.58,0,0,0,0,0-.01,0-.01,0-.02-.01-.03,0,0,0,0,0,0,0,0,0,0,0,0-1.5-4.78-3.97-9.47-7.36-13.96-.21-.27-.53-.42-.85-.41-.21,0-.42.07-.6.21-.45.34-.54.99-.2,1.44,3.25,4.31,5.62,8.81,7.05,13.37,0,0,0,.01,0,.02s0,.01,0,.02c1.01,2.85-.48,5.99-3.33,7-2.85,1.01-5.99-.48-7-3.33-1.97-5.55-5.04-10.39-8.89-14.38v3.06c2.96,3.45,5.34,7.48,6.95,12.01,1.39,3.92,5.71,5.98,9.63,4.59Z" style="fill: #fff;"/>
        <path d="M220.39,302.81c.51-.26.71-.88.45-1.39-.26-.51-.88-.71-1.39-.45-12.67,6.44-26.8,9.28-40.86,8.22-2.77-.21-5.53-.57-8.25-1.08v2.1c2.67.48,5.37.83,8.09,1.03,14.44,1.09,28.94-1.83,41.95-8.44Z" style="fill: #fff;"/>
        <path d="M225.17,290.15c-.19,0-.39.06-.56.18-1.67,1.16-3.43,2.26-5.22,3.28-.49.28-.67.91-.39,1.4.28.49.91.67,1.4.39,1.84-1.05,3.65-2.18,5.37-3.37.47-.32.59-.96.26-1.43-.2-.3-.54-.45-.87-.44Z" style="fill: #fff;"/>
        <path d="M216.24,297.59c.51-.25.72-.87.47-1.38-.25-.51-.87-.72-1.38-.47-13.87,6.78-29.84,8.59-44.99,5.56v2.1c15.47,3.01,31.74,1.11,45.89-5.81Z" style="fill: #fff;"/>
        <path d="M172.76,256.7c6.53,3.11,13.88,3.49,20.71,1.06,6.82-2.42,12.29-7.35,15.4-13.88,3.11-6.53,3.48-13.88,1.06-20.71,0,0,0,0,0,0,0,0,0,0,0,0-2.82-7.54-6.09-13.78-9.98-19.07-.21-.28-.53-.43-.85-.42-.2,0-.41.07-.59.2-.46.34-.56.98-.22,1.44,3.78,5.14,6.96,11.21,9.71,18.56,2.24,6.3,1.89,13.1-.98,19.13-2.87,6.03-7.93,10.59-14.23,12.83-6.31,2.24-13.1,1.89-19.13-.98-1.16-.55-2.26-1.18-3.3-1.89v2.45c.78.47,1.58.9,2.41,1.3Z" style="fill: #fff;"/>
        <path d="M188.24,298.52c15.68-1.2,29.97-7.38,41.32-17.87.42-.39.44-1.04.06-1.46-.39-.42-1.04-.44-1.46-.06-11,10.17-24.86,16.16-40.08,17.33-5.88.45-11.89-.03-17.73-1.33v2.1c5.91,1.28,11.96,1.74,17.89,1.29Z" style="fill: #fff;"/>
        <path d="M232.47,265.9c-.19-.15-.43-.22-.65-.22-.3,0-.59.14-.79.4-13.78,17.79-35.48,26.98-55.29,23.39-.56-.1-1.1.27-1.2.83-.1.56.27,1.1.83,1.2,20.55,3.71,43.04-5.77,57.28-24.16.35-.45.27-1.1-.18-1.45Z" style="fill: #fff;"/>
        <path d="M190.04,285.47c15.85-1.54,30.05-10.19,38.97-23.73,0,0,0,0,0,0,.04-.04.07-.09.1-.14,2.35-3.79,4.14-7.77,5.33-11.83.16-.55-.15-1.12-.7-1.28-.1-.03-.21-.04-.31-.04-.44,0-.83.3-.96.74-1.14,3.88-2.85,7.68-5.1,11.31-.03.04-.06.08-.09.12-8.58,13.02-22.22,21.33-37.45,22.81-6.62.64-13.24,0-19.49-1.81v2.14c6.34,1.76,13.01,2.37,19.69,1.73Z" style="fill: #fff;"/>
        <path d="M202.8,267.27c12-6.16,20.01-17.39,21.42-30.02.06-.57-.34-1.07-.91-1.14-.05,0-.09,0-.14,0-.51.01-.94.4-1,.92-1.34,11.95-8.93,22.58-20.32,28.42-10.13,5.2-21.56,5.91-31.51,2.14v2.2c10.31,3.67,22.04,2.84,32.45-2.5Z" style="fill: #fff;"/>
        <path d="M195.63,277.5c6.03-1.5,11.86-4.27,16.85-8.02.45-.34.55-.99.2-1.44-.34-.45-.99-.55-1.44-.21-4.77,3.58-10.34,6.23-16.11,7.67-8.15,2.02-16.82,1.64-24.79-.98v2.17c8.15,2.55,16.98,2.88,25.28.82Z" style="fill: #fff;"/>
        <path d="M191.29,251.62c5.18-1.84,9.34-5.58,11.7-10.54,2.35-4.94,2.64-10.5.83-15.66-2.62-11.39-10.18-21.73-23.14-31.63-3.53-2.52-6.99-4.41-10.33-5.96v2.28c2.97,1.43,6.02,3.13,9.1,5.34,12.55,9.59,19.87,19.55,22.37,30.48,0,.02.01.04.02.06,0,.02,0,.04.01.06,1.66,4.66,1.4,9.69-.73,14.15-2.12,4.46-5.86,7.83-10.53,9.49-4.66,1.66-9.69,1.4-14.15-.73-2.38-1.13-4.44-2.72-6.1-4.66v2.98c1.53,1.42,3.27,2.62,5.21,3.55,4.96,2.36,10.55,2.65,15.73.81Z" style="fill: #fff;"/>
        <path d="M230.71,205.29c-.18-.38-.56-.6-.96-.59-.14,0-.28.03-.41.1-.51.24-.74.86-.49,1.37,1.37,2.91,2.61,5.93,3.7,8.98.19.54.78.82,1.32.63.54-.19.82-.78.63-1.32-1.1-3.11-2.37-6.19-3.77-9.16Z" style="fill: #fff;"/>
        <path d="M225.07,198.95c.28.49.91.66,1.41.38.49-.28.66-.92.38-1.41-3.9-6.74-8.6-13.01-13.97-18.63-.21-.22-.49-.32-.77-.32-.25,0-.49.1-.69.28-.41.39-.43,1.05-.03,1.46,5.25,5.5,9.85,11.64,13.67,18.24Z" style="fill: #fff;"/>
        <path d="M206.65,176.07c.42.38,1.07.35,1.46-.07.38-.42.35-1.07-.07-1.46-3.27-2.98-6.77-5.77-10.41-8.28-8.37-5.78-17.6-10.24-27.28-13.21v2.16c9.26,2.91,18.09,7.21,26.11,12.75,3.57,2.47,6.99,5.19,10.19,8.11Z" style="fill: #fff;"/>
        <path d="M190.59,170.51c.31-.48.18-1.11-.3-1.43-6.21-4.07-12.93-7.29-19.95-9.61v2.17c6.61,2.25,12.95,5.32,18.82,9.16.48.31,1.11.18,1.43-.3Z" style="fill: #fff;"/>
        <path d="M228.34,216.61s0-.01,0-.02c-2.82-7.05-6.05-14.48-10.54-21.11-3.82-5.63-8.3-10.84-13.32-15.48-2.76-2.55-5.73-5-9.09-7.49-.19-.14-.42-.21-.64-.2-.31,0-.61.15-.8.42-.34.46-.24,1.1.21,1.44,3.3,2.45,6.21,4.85,8.92,7.34,4.91,4.53,9.28,9.62,13.01,15.12,4.38,6.46,7.55,13.76,10.33,20.69,2.63,7.41,3.26,15.37,1.83,23.04-.02.1-.02.19,0,.28-.04.08-.08.17-.1.27-1.75,8.79-6.25,17.05-12.65,23.27-.41.4-.42,1.05-.02,1.46.4.41,1.05.42,1.46.02,6.7-6.51,11.4-15.15,13.23-24.34.02-.1.02-.2.01-.3.04-.09.08-.18.1-.28,1.5-8.03.83-16.37-1.92-24.12,0,0,0-.01,0-.02Z" style="fill: #fff;"/>
        <path d="M220.26,219.49s0,0,0,0c0,0,0,0,0,0,1.25,3.53,1.98,7.19,2.16,10.89.03.57.52.99,1.08.98.57-.03,1.01-.51.98-1.08-.19-3.9-.96-7.75-2.27-11.46,0,0,0,0,0,0,0,0,0,0,0,0,0,0,0,0,0,0,0,0,0,0,0,0-3.85-11.16-10.22-21.66-18.4-30.36-8.24-8.76-18.36-15.74-29.29-20.2-1.38-.55-2.77-1.06-4.18-1.54v2.18c1.14.4,2.28.82,3.41,1.27,21.48,8.75,38.87,27.19,46.51,49.33Z" style="fill: #fff;"/>
        <path d="M214.12,221.67s0,0,0,0c0,0,0,0,0,0,2.82,7.95,2.38,16.51-1.24,24.11-3.62,7.6-9.99,13.34-17.93,16.16-7.95,2.82-16.51,2.38-24.11-1.24-.17-.08-.33-.16-.5-.24v2.26c7.69,3.54,16.71,4.21,25.3,1.16,8.46-3.01,15.25-9.12,19.11-17.22,3.85-8.09,4.32-17.21,1.32-25.67,0,0,0,0,0,0,0,0,0,0,0-.01,0,0,0,0,0,0,0,0,0,0,0,0-4.63-13.72-13.12-25.71-25.23-35.63-5.86-4.8-12.9-8.83-20.49-11.79v2.22c6.99,2.79,13.54,6.55,19.19,11.17,11.81,9.67,20.09,21.35,24.59,34.71Z" style="fill: #fff;"/>
        <path d="M194.59,200.9c.38.42,1.03.46,1.45.08.42-.38.46-1.03.08-1.45-7.85-8.8-16.33-15.1-25.78-19.12v2.25c8.84,3.91,16.82,9.93,24.24,18.24Z" style="fill: #fff;"/>
        <path d="M171.15,236.93s0,0,0,0c1.26,3.54,3.82,6.38,7.2,7.99,3.39,1.61,7.21,1.81,10.75.55,7.3-2.59,11.13-10.64,8.55-17.94,0,0,0,0,0,0,0,0,0,0,0,0,0,0,0,0,0,0h0c-4.69-13.69-14.4-24.9-27.31-31.88v2.35c11.97,6.77,20.96,17.36,25.36,30.21,0,0,0,0,0,0,0,0,0,0,0,0,2.21,6.23-1.06,13.11-7.29,15.32-3.02,1.07-6.28.91-9.17-.47-2.89-1.38-5.08-3.8-6.15-6.82,0,0,0,0,0,0-.7-2.05-1.62-4.03-2.75-5.9v3.61c.3.68.56,2.27.8,2.97,0,0,0,0,0,0Z" style="fill: #fff;"/>
        <path d="M178.99,212.77c.35.45.99.54,1.44.19.45-.35.54-.99.19-1.44-2.9-3.77-6.46-6.36-10.28-8.84v2.46c3.3,2.19,6.2,4.45,8.64,7.63Z" style="fill: #fff;"/>
        <path d="M174.89,217.7s.02.02.03.03c.33.32.61.76.9,1.22.33.53.68,1.07,1.15,1.55,3.23,4.41,5.1,7.9,6.45,12.05.18.54.76.84,1.3.66.54-.18.84-.76.66-1.3-1.43-4.39-3.4-8.07-6.8-12.7-.04-.05-.07-.09-.12-.13-.33-.32-.61-.76-.9-1.22-.34-.55-.7-1.11-1.2-1.6-1.85-1.93-3.82-3.87-6.01-5.65v2.7c1.61,1.41,3.11,2.9,4.54,4.39Z" style="fill: #fff;"/>
      </g>
    </g>
    <g id="uuid-4cf5c0dd-353d-4f3e-b6eb-905495a93f83" data-name="CIRCUITS - copie 2" style="opacity: .8;">
      <g id="uuid-a1ca0696-d51a-4e06-ac2e-ab73f7d3c210" data-name="CIRCUITS GAUCHE">
        <path d="M138.85,202.7c-.41-.87-1.29-1.21-2.28-1.21-1.4,0-2.54,1.14-2.54,2.53s1.14,2.53,2.54,2.53c1,0,1.87-.57,2.28-1.44h31.46v-2.41h-31.47Z" style="fill: #fff;"/>
        <path d="M160.5,301.3c-.4-.84-1.25-1.39-2.21-1.39-.66,0-1.28.26-1.74.72-.46.46-.72,1.08-.71,1.73,0,.65.25,1.27.71,1.74.46.47,1.08.72,1.74.72.96,0,1.81-.55,2.21-1.4h9.76v-2.12h-9.76Z" style="fill: #fff;"/>
        <path d="M161.88,328.13c-.4-.84-1.25-1.39-2.21-1.39-.66,0-1.28.26-1.74.72-.46.46-.72,1.08-.71,1.73,0,.65.25,1.27.71,1.74.46.47,1.08.72,1.74.72.96,0,1.81-.55,2.21-1.4h8.42v-2.12h-8.42Z" style="fill: #fff;"/>
        <path d="M151.99,274.5l-6.48-6.47h-52.17c-.41-.87-1.29-1.44-2.28-1.44-1.4,0-2.54,1.14-2.54,2.53s1.14,2.53,2.54,2.53c.99,0,1.87-.57,2.28-1.44h51.26l6.48,6.47h19.17v-2.19h-18.27Z" style="fill: #fff;"/>
        <path d="M129.84,289.12c-.41-.87-1.29-1.44-2.28-1.44h0c-.68,0-1.31.26-1.79.74-.48.48-.74,1.11-.74,1.79,0,1.4,1.14,2.53,2.54,2.53.99,0,1.87-.57,2.28-1.44h40.51v-2.19h-40.51Z" style="fill: #fff;"/>
        <path d="M129.04,314.58c-.4-.84-1.25-1.39-2.21-1.39h0c-.65,0-1.27.26-1.73.72-.46.46-.72,1.08-.72,1.74,0,1.35,1.1,2.46,2.46,2.46.96,0,1.81-.55,2.21-1.39h41.21v-2.12h-41.21Z" style="fill: #fff;"/>
        <path d="M137.45,153.07l-5.19,5.19c-.89-.32-1.9-.11-2.6.59-.98.97-.98,2.56,0,3.54.49.49,1.13.73,1.77.73s1.28-.24,1.77-.73c.69-.69.91-1.7.59-2.6l4.56-4.55h32v-2.16h-32.89Z" style="fill: #fff;"/>
        <path d="M136.73,166.67l-5.35,5.35c-.89-.31-1.67-.1-2.35.58-.97.96-.97,2.54,0,3.5.48.48,1.12.72,1.75.72.63,0,1.27-.24,1.75-.72.69-.69.9-1.69.58-2.57l4.51-4.73h32.62v-2.13h-33.51Z" style="fill: #fff;"/>
        <path d="M170.24,173.5h-25.83c-.4-.85-1.26-1.21-2.23-1.21-1.35,0-2.45,1.1-2.45,2.46s1.1,2.45,2.45,2.45c.95,0,1.79-.54,2.2-1.36h25.86v-2.34Z" style="fill: #fff;"/>
        <path d="M143.31,321.43c-.4-.85-1.26-1.43-2.23-1.43-1.35,0-2.45,1.1-2.45,2.46s1.1,2.45,2.45,2.45c.95,0,1.79-.54,2.2-1.36h27.03v-2.12h-27Z" style="fill: #fff;"/>
        <path d="M116.65,281.65c-.41-.87-1.29-1.44-2.28-1.44-1.4,0-2.54,1.14-2.54,2.53s1.14,2.53,2.54,2.53c.99,0,1.87-.57,2.28-1.44h53.69v-2.19h-53.69Z" style="fill: #fff;"/>
        <path d="M109.52,187.74c-.4-.84-1.25-1.18-2.21-1.18-1.35,0-2.46,1.1-2.46,2.46s1.1,2.45,2.46,2.45c.96,0,1.81-.55,2.21-1.4h60.85v-2.34h-60.85Z" style="fill: #fff;"/>
        <path d="M94.58,250.01c-.41-.87-1.29-1.44-2.28-1.44-1.4,0-2.53,1.14-2.53,2.53s1.14,2.53,2.53,2.53c.99,0,1.87-.57,2.28-1.44h57.16l18.62-18.62v-3.1l-19.53,19.53h-56.25Z" style="fill: #fff;"/>
        <path d="M86.61,260.4c-.41-.87-1.29-1.21-2.28-1.21-1.4,0-2.53,1.14-2.53,2.53s1.14,2.53,2.53,2.53c.99,0,1.87-.57,2.28-1.44h83.65v-2.41h-83.65Z" style="fill: #fff;"/>
        <path d="M165.27,208.13c-.99,0-1.87.57-2.28,1.44h-18.83c-.41-.87-1.29-1.44-2.28-1.44-1.4,0-2.53,1.14-2.53,2.53s1.14,2.53,2.53,2.53c1,0,1.87-.57,2.28-1.44h18.83c.41.87,1.29,1.44,2.28,1.44,1.4,0,2.54-1.14,2.54-2.54s-1.14-2.53-2.54-2.53Z" style="fill: #fff;"/>
        <path d="M162.81,293.08c-.94,0-1.77.55-2.16,1.39h-10.05c-.39-.84-1.22-1.39-2.16-1.39-1.33,0-2.4,1.1-2.4,2.46s1.08,2.46,2.4,2.46c.94,0,1.77-.55,2.17-1.4h10.05c.39.84,1.22,1.4,2.16,1.4,1.33,0,2.41-1.1,2.41-2.46s-1.08-2.45-2.41-2.45Z" style="fill: #fff;"/>
        <path d="M138.91,240.64c-.99,0-1.87.57-2.28,1.44h-18.83c-.41-.87-1.29-1.44-2.28-1.44-1.4,0-2.53,1.14-2.53,2.53s1.14,2.53,2.53,2.53c1,0,1.87-.57,2.28-1.44h18.83c.41.87,1.29,1.44,2.28,1.44,1.4,0,2.54-1.14,2.54-2.54s-1.14-2.53-2.54-2.53Z" style="fill: #fff;"/>
        <path d="M163.37,224.73c-.7.7-.92,1.72-.6,2.63l-13.34,13.29c-.91-.32-1.93-.11-2.63.59-.99.99-.99,2.59,0,3.58s2.59.99,3.58,0c.71-.7.92-1.73.6-2.63l13.34-13.29c.91.32,1.93.11,2.63-.59.99-.99.99-2.6,0-3.59s-2.59-.99-3.58,0Z" style="fill: #fff;"/>
        <path d="M160.87,219.81l-12.63,12.85h-48.09c-.41-.88-1.3-1.24-2.3-1.24-1.4,0-2.53,1.14-2.53,2.53s1.14,2.53,2.54,2.53c.98,0,1.84-.34,2.26-1.18h49.03l12.63-12.85h8.38v-2.64h-9.29Z" style="fill: #fff;"/>
        <path d="M158.86,267.59c-.41-.87-1.29-1.44-2.28-1.44-1.4,0-2.53,1.14-2.53,2.53s1.14,2.53,2.53,2.53c.99,0,1.87-.57,2.28-1.44h11.44s0-2.19,0-2.19h-11.44Z" style="fill: #fff;"/>
        <path d="M166.43,308.94c.19-.19.3-.45.3-.72s-.1-.53-.3-.72c-.39-.39-1.04-.39-1.43,0-.19.19-.3.45-.3.72s.11.53.3.72c.4.39,1.04.39,1.43,0Z" style="fill: #fff; stroke: #fff; stroke-miterlimit: 10; stroke-width: 1.34px;"/>
        <path d="M165.36,158.92c-.62-.27-1.35-.1-1.82.38h0c-.32.32-.49.74-.49,1.19s.17.87.5,1.19c.33.33.76.49,1.19.49s.86-.16,1.19-.49c.32-.32.49-.74.49-1.19,0-.67-.39-1.28-1.05-1.57Z" style="fill: #fff;"/>
        <path d="M165.36,179.49c-.62-.27-1.35-.1-1.82.38h0c-.32.32-.49.74-.49,1.19s.17.87.5,1.19c.33.33.76.49,1.19.49s.86-.16,1.19-.49c.32-.32.49-.74.49-1.19,0-.67-.39-1.28-1.05-1.57Z" style="fill: #fff;"/>
        <path d="M170.23,244.07l-3.38,3.38c-.9-.32-1.93-.11-2.63.6-.48.48-.74,1.11-.74,1.79s.26,1.31.74,1.79c.49.49,1.14.74,1.79.74.65,0,1.3-.25,1.79-.74.48-.48.74-1.12.74-1.79,0-.29-.05-.57-.15-.84l1.83-1.83v-3.1Z" style="fill: #fff;"/>
        <path d="M114.1,195.62c-.41-.87-1.29-1.21-2.28-1.21-1.4,0-2.53,1.14-2.53,2.53s1.14,2.53,2.53,2.53c.99,0,1.87-.57,2.28-1.44h56.2v-2.41h-56.2Z" style="fill: #fff;"/>
        <path d="M157.1,214.4c-.99-.98-2.6-.98-3.59,0-.7.7-.92,1.73-.59,2.63l-4.42,4.42h-35.11c-.4-.9-1.3-1.52-2.32-1.52-1.4,0-2.53,1.14-2.53,2.53s1.14,2.53,2.54,2.53c.95,0,1.81-.54,2.24-1.37h36.1l5.06-5.06c.91.32,1.93.11,2.63-.6.99-.99.99-2.6,0-3.58Z" style="fill: #fff;"/>
        <path d="M152.79,299.84c-.99,0-1.87.57-2.28,1.44h-8.19l-5.28-5.28h-15.51c-.41-.87-1.29-1.44-2.28-1.44-1.4,0-2.53,1.14-2.53,2.53s1.14,2.53,2.53,2.53c.99,0,1.87-.57,2.28-1.44h14.6l5.28,5.28h9.09c.41.87,1.29,1.44,2.28,1.44,1.4,0,2.53-1.14,2.53-2.53s-1.14-2.53-2.53-2.53Z" style="fill: #fff;"/>
        <path d="M166.54,333.43c-.99,0-1.87.57-2.28,1.44h-8.19l-5.28-5.28h-15.51c-.41-.87-1.29-1.44-2.28-1.44-1.4,0-2.53,1.14-2.53,2.53s1.14,2.53,2.53,2.53c.99,0,1.87-.57,2.28-1.44h14.6l5.28,5.28h9.09c.41.87,1.29,1.44,2.28,1.44,1.4,0,2.53-1.14,2.53-2.53s-1.14-2.53-2.53-2.53Z" style="fill: #fff;"/>
      </g>
    </g>
    <g id="uuid-d02381b4-8972-4321-85f2-a80e9f59eab0" data-name="LOGO - copie 2">
      <text transform="translate(31.61 475.29)" style="font-family: Barlow-SemiBold, Barlow; font-size: 19.83px; font-weight: 600;"><tspan x="0" y="0">IA CO</tspan><tspan x="46.39" y="0" style="letter-spacing: 0em;">N</tspan><tspan x="59.48" y="0">FIANTE ET RESPONSABLE</tspan></text>
      <g>
        <path d="M176.12,97.29c16.93,19.62,36.28,43.64,46.46,50.78h0c-5.63-11.76-21.65-39.13-39.22-59.99l-7.24,9.22Z" style="fill: #00273c;"/>
        <path d="M176.33,79.05c-8.35,11.66-39.34,47.79-47.14,68.51h0c11.78-9.92,41.64-42.28,54.26-59.39l-7.12-9.12Z" style="fill: #009597;"/>
        <path d="M176.33,79.05c-17.02-19.62-36.17-42.38-46.43-49.51h0c5.63,11.85,21.45,37.78,39.1,58.64l7.34-9.12Z" style="fill: #00273c;"/>
        <path d="M192.95,58.74c11.29-14.29,25.38-22.39,34.64-17.58-6.16-2.82-26.31,22.95-26.31,22.95,0,0-11.65,15.25-17.91,23.97l-7.03-9.03,16.61-20.32Z" style="fill: #006f49;"/>
      </g>
    </g>
  </g>
</svg>