<?xml version="1.0" encoding="UTF-8"?>
<svg xmlns="http://www.w3.org/2000/svg" viewBox="0 0 617.39 250">
  <g id="uuid-72fcdaaf-374a-4d71-9c13-d167efc9576d" data-name="Calque 3">
    <rect width="617.39" height="250" style="fill: #fff;"/>
  </g>
  <g id="uuid-daca0259-9d33-4c38-929d-45a99245dbf2" data-name="SLOGAN">
    <text transform="translate(215.51 206.49) scale(.97 1)" style="fill: #2f2f2f; font-family: Barlow-Regular, Barlow; font-size: 18.81px;"><tspan x="0" y="0">O</tspan><tspan x="11.7" y="0" style="letter-spacing: 0em;">p</tspan><tspan x="21.95" y="0">e</tspan><tspan x="31.97" y="0" style="letter-spacing: 0em;">r</tspan><tspan x="38.78" y="0" style="letter-spacing: 0em;">a</tspan><tspan x="48.32" y="0">tional </tspan><tspan x="98.04" y="0" style="letter-spacing: 0em;">R</tspan><tspan x="109.5" y="0" style="letter-spacing: 0em;">e</tspan><tspan x="119.35" y="0">s</tspan><tspan x="128.4" y="0" style="letter-spacing: 0em;">e</tspan><tspan x="138.33" y="0">a</tspan><tspan x="147.94" y="0" style="letter-spacing: 0em;">r</tspan><tspan x="154.69" y="0" style="letter-spacing: 0em;">ch A</tspan><tspan x="189.79" y="0" style="letter-spacing: .01em;">r</tspan><tspan x="196.9" y="0">tificial In</tspan><tspan x="267.33" y="0" style="letter-spacing: -.01em;">t</tspan><tspan x="273.89" y="0" style="letter-spacing: 0em;">ellige</tspan><tspan x="317.45" y="0" style="letter-spacing: 0em;">n</tspan><tspan x="327.46" y="0" style="letter-spacing: 0em;">c</tspan><tspan x="337.18" y="0" style="letter-spacing: 0em;">e LIX</tspan></text>
  </g>
  <g id="uuid-0dcea7a7-f16d-43e7-9284-82865d0980d7" data-name="LOGO ORAILIX">
    <g id="uuid-e3a17844-e19a-44a0-aa0c-b73957561523" data-name="MAIN">
      <g id="uuid-e536b702-36ff-4617-8b83-57d29c54a471" data-name="MAIN">
        <path d="M118.3,61.49c-7.49-10.43-20.29-21.57-22.84-23.74,2.88-.51,4.59-.54,4.66-.54l10.28-.65,3.45,11.58c.67,2.24,2,4.26,3.84,5.84,4.79,4.09,10.4,7,14.9,9.33,1.3.67,2.41,1.26,3.43,1.83-3.89,1.36-10.73,5.87-12.79,7.26-.58-3.1-1.97-6.79-4.92-10.9Z" style="fill: #9b9b9b;"/>
        <path d="M158.98,182.73l-.64-.44-.04.05-5.76-3.24s-6.28-2.67-14.65-7.35c5.25-2.24,10.24-5.11,14.87-8.6.92,1.07,1.4,1.28,3.9,2.32.91.38,2.1.88,3.69,1.58l15.74,5.71c-4.35,4.44-9.1,8.34-14.2,11.6l-2.91-1.64Z" style="fill: #5e5e5e;"/>
        <path d="M80.55,115.65c.15-2.1,1.41-21.34-1.38-31.13.65.91,1.26,1.83,1.82,2.78l.24.41.24-.07c.37.42,2.02,3.21,2.55,19.6-.44,1.21-3.1,10.04,5.82,26.18l9.38,13.97c.26.84,1.23,3.82,2.56,7.07-2.72-2.98-7.26-7.93-9.45-10.11l-11.77-28.7Z" style="fill: #5e5e5e;"/>
        <path d="M122.15,78.37c-.29,1.99-.85,3.14-.86,3.17-.59.71-15.7,19.87-12.48,32.46,3,11.75,10.63,30.4,11.37,32.24-.64,4.78-1.76,7.33-2.58,9.56-.32.6-.64,1.21-1.04,1.81-.89,1.31-2,2.59-3.39,3.76-.06.03-.11.07-.17.1,1.96-2.5,4.14-5.74,4.55-8.26.75-4.64-4.25-13.6-4.46-13.98l-.08-.14-4.19-2.45-.32.46c-3.54,5-7.42,9.21-8.31,9.01l-.26.13-9.04-13.46c-9.07-16.41-5.71-25.12-5.68-25.2l.05-.25c-.28-8.61-1.04-19.2-3.12-20.74-.07-.05-.14-.09-.21-.13-7.54-12.56-23.28-21.65-27.04-23.69,6.63-7.9,14.55-14.22,23.2-18.97,6.63-3.41,12.48-5.1,16.47-5.88l-.33.39c.15.12,14.86,12.46,23.08,23.9,5.01,6.97,5.33,12.74,4.86,16.11h-.03s.01.04.02.05Z" style="fill: #8f8f8f;"/>
        <path d="M113.73,162.47c2.41-2.03,3.9-4.16,4.97-6.2,1.82-3.5,2.42-6.98,2.54-9.32,4.87,5.19,11.75,18.37,14.62,24.35-6.28,2.51-12.9,4.1-19.62,4.73-2.07-4.06-4.92-8.84-6.24-11.03.03-.03.04-.04.08-.08,1.33-.71,2.54-1.54,3.65-2.45Z" style="fill: #6a6a6a;"/>
        <path d="M136.45,172.39l.27.15c8.6,4.84,15.22,7.66,15.29,7.69l6.21,3.5,2.17,1.47c-4.34,2.65-8.89,4.9-13.6,6.69l-9.02-3.89c-.52-.22-1.25-.52-2.12-.88-4.69-1.93-16.92-6.99-18.75-9.94,6.7-.68,13.28-2.28,19.55-4.79Z" style="fill: #5a5a5a;"/>
        <path d="M154.71,161.65c4.06-3.28,7.77-7.1,11.1-11.35l22.74,5.65.15.02c-1.05,1.83-2.09,3.66-3.3,5.44-1.55,2.28-3.2,4.45-4.93,6.53h-.43s-25.34-6.29-25.34-6.29Z" style="fill: #797979;"/>
        <path d="M190.01,156.17l13.51,2.1c3.31,1.66,5.1,3.48,5.19,5.26.1,2.08-2.07,3.72-2.63,4.11l-24.05.28c1.52-1.87,3.01-3.79,4.39-5.82,1.31-1.93,2.47-3.92,3.59-5.92Z" style="fill: #8f8f8f;"/>
        <path d="M180.97,110.09l18.5,4.98c.02,3.8-.28,7.59-.79,11.38l-19.74-2.89c1.11-4.45,1.79-8.96,2.03-13.48Z" style="fill: #8f8f8f;"/>
        <path d="M160.93,108.73c-.25.19-4.39,3.49-6.98,7.55h0l-1.05,1.94c-.13.29-.25.58-.35.88h0s-3.69,9.39-3.69,9.39c-1.08-1.87-4.1-6.61-9.09-10.62,3.64-11.07,17.04-24.44,17.95-25.34,2.42,2.78,6.08,7.12,6.74,7.89-.05,1.03-.49,6.27-3.52,8.31Z" style="fill: #6a6a6a;"/>
        <path d="M112.09,139.98c.64,1.17,4.87,9.12,4.24,13.04-.53,3.31-4.7,8.31-6.56,10.41-.27.16-.52.26-.83.17-3.05-.95-7.07-11.87-8.48-16.36,2.33-.44,6.87-6.43,8.7-8.98l2.93,1.72Z" style="fill: #8f8f8f;"/>
        <path d="M143.17,108.35c-2.68-2.41-12.24-11.88-19.75-30.1.17-1.25.21-2.77,0-4.51,3.06-2.1,11.01-7.2,13.96-7.7,2,2.69,16.93,22.67,19.08,25.07.12.14.29.33.43.49-.56.55-7.34,7.23-12.71,15.16-.35.52-.68,1.06-1.02,1.59Z" style="fill: #6a6a6a;"/>
        <path d="M119.81,142.35c-1.06-2.69-2.71-6.97-4.42-11.74l14.25-16.74c3.14.87,6.17,2.44,9.03,4.67,6.23,4.87,9.54,11.29,9.57,11.35l.1-.05c-.45,1.23-2.62,6.28-10.34,13.12l-12.07,8.08c-1.25-1.84-2.48-3.47-3.64-4.73-1.07-1.15-1.91-2.5-2.48-3.96Z" style="fill: #6a6a6a;"/>
        <path d="M177.55,173.31l22.82,2.21c8.12,1.15,10.33,3.32,10.76,4.94.65,2.48-2.34,5.15-3.08,5.77l-44.78-1.33c5.04-3.3,9.72-7.24,14.02-11.68l.27.1Z" style="fill: #797979;"/>
        <path d="M151.92,162.21c-4.65,3.49-9.66,6.37-14.93,8.59-1.2-2.47-5.77-11.72-10.39-18.76l11.13-7.45,14.19,17.63Z" style="fill: #797979;"/>
        <path d="M161.68,186.07l.74.02,16.23,9.14c5.14,4.61,3.5,8.87,2.05,11.01-.08.11-.15.21-.22.31l-25.25-11.03-6.77-2.92c4.53-1.8,8.88-4.05,13.06-6.65l.16.11Z" style="fill: #5e5e5e;"/>
        <path d="M136.46,102.94c2.78,3.4,5,5.52,6.04,6.45-1.57,2.57-2.88,5.19-3.76,7.74-2.75-2.03-5.64-3.51-8.64-4.36l6.36-9.83Z" style="fill: #6a6a6a;"/>
        <path d="M129.09,112.62l-.13.15-14.05,16.5c-1.86-5.24-3.73-10.91-4.92-15.58-3.07-12,12.17-31.3,12.32-31.49.06-.12.39-.76.69-1.85,4.15,9.64,8.83,16.75,12.64,21.58l-6.55,10.69h0Z" style="fill: #6a6a6a;"/>
        <path d="M211.05,118.19c2.92,1.9,4.35,3.73,4.14,5.28-.29,2.11-3.59,3.6-4.84,3.99l-3.09.4c-.5-.08-3.33-.55-5.24-.88-1.03-.17-1.8-.3-1.83-.31l-.31-.05c.5-3.74.82-7.48.82-11.22l10.34,2.79Z" style="fill: #9b9b9b;"/>
        <path d="M155.18,116.64c2.53-3.73,6.43-6.88,6.48-6.92,2.99-2.03,3.77-6.47,3.97-8.48l14.14,8.27c-.21,4.62-.89,9.23-2.03,13.79l-22.57-6.66Z" style="fill: #9b9b9b;"/>
        <path d="M164.88,149.5c-3.57,4.54-7.57,8.56-11.96,11.99l-14-17.39c6.57-5.9,9.24-10.73,10.19-12.89,1.4,2.52,2.18,3.35,3.8,4.91,1.88,1.81,5.03,4.85,11.96,13.38Z" style="fill: #8f8f8f;"/>
      </g>
      <path id="uuid-f070f976-f221-4f2d-a307-f8b3f256b805" data-name="CONTOURS BLANCS MAIN" d="M164.27,46.63c-24.83-16.83-55.55-18.31-81.05-6.75-4.88,1.94-9.52,4.49-13.91,7.5-5.83,4-11.12,8.93-15.67,14.73-.11.13-.22.24-.33.37l-.49.59.07.04c-.75.99-1.54,1.94-2.25,2.98-.31.46-.55.94-.85,1.4-.32.45-.68.85-.98,1.3-5.68,8.38-9.52,17.45-11.81,26.75-8.06,32.81,4.4,68.67,33.97,88.72,23.13,15.68,51.39,18.04,75.78,8.95l8,3.45,26.1,11.39s.4-.4.88-1.11c1.48-2.19,3.76-7.31-2.35-12.7l-14.31-8.06,43.4,1.29.17-.13c.19-.15,4.63-3.59,3.69-7.19-.75-2.88-4.72-4.85-11.8-5.85l-22.24-2.15c.93-.99,1.89-1.94,2.77-2.99l25.39-.29.15-.09c.14-.09,3.49-2.2,3.35-5.3-.11-2.31-2.11-4.45-5.96-6.35l-.18-.06-13.1-2.03c4.7-8.66,7.62-17.87,9.01-27.2l.31.05c.05.01.8.13,1.8.3,5.31.89,5.34.9,5.39.9l3.4-.43c.32-.09,5.34-1.68,5.79-5.02.29-2.1-1.32-4.3-4.77-6.53l-.17-.08-10.81-2.91c-.46-26.16-13.13-51.72-36.38-67.48ZM199.89,126.63c.5-3.74.82-7.48.82-11.22l10.34,2.79c2.92,1.9,4.35,3.73,4.14,5.28-.29,2.11-3.59,3.6-4.84,3.99l-3.09.4c-.5-.08-3.33-.55-5.24-.88-1.03-.17-1.8-.3-1.83-.31l-.31-.05ZM116.9,177.18c6.7-.68,13.28-2.28,19.55-4.79l.27.15c8.6,4.84,15.22,7.66,15.29,7.69l6.21,3.5,2.17,1.47c-4.34,2.65-8.89,4.9-13.6,6.69l-9.02-3.89c-.52-.22-1.25-.52-2.12-.88-4.69-1.93-16.92-6.99-18.75-9.94ZM154.71,161.65c4.06-3.28,7.77-7.1,11.1-11.35l22.74,5.65.15.02c-1.05,1.83-2.09,3.66-3.3,5.44-1.55,2.28-3.2,4.45-4.93,6.53h-.43s-25.34-6.29-25.34-6.29ZM177.74,123.29l-22.57-6.66c2.53-3.73,6.43-6.88,6.48-6.92,2.99-2.03,3.77-6.47,3.97-8.48l14.14,8.27c-.21,4.62-.89,9.23-2.03,13.79ZM132.58,63.31c1.3.67,2.41,1.26,3.43,1.83-3.89,1.36-10.73,5.87-12.79,7.26-.58-3.1-1.97-6.79-4.92-10.9-7.49-10.43-20.29-21.57-22.84-23.74,2.88-.51,4.59-.54,4.66-.54l10.28-.65,3.45,11.58c.67,2.24,2,4.26,3.84,5.84,4.79,4.09,10.4,7,14.9,9.33ZM54.88,62.77c6.63-7.9,14.55-14.22,23.2-18.97,6.63-3.41,12.48-5.1,16.47-5.88l-.33.39c.15.12,14.86,12.46,23.08,23.9,5.01,6.97,5.33,12.74,4.86,16.11h-.03s.01.04.02.05c-.29,1.99-.85,3.14-.86,3.17-.59.71-15.7,19.87-12.48,32.46,3,11.75,10.24,29.77,10.98,31.61-.64,4.78-1.37,7.96-2.19,10.2-.32.6-.64,1.21-1.04,1.81-.89,1.31-2,2.59-3.39,3.76-.06.03-.11.07-.17.1,1.96-2.5,4.14-5.74,4.55-8.26.75-4.64-4.25-13.6-4.46-13.98l-.08-.14-4.19-2.45-.32.46c-3.54,5-7.42,9.21-8.31,9.01l-.26.13-9.04-13.46c-9.07-16.41-5.71-25.12-5.68-25.2l.05-.25c-.28-8.61-1.04-19.2-3.12-20.74-.07-.05-.14-.09-.21-.13-7.54-12.56-23.28-21.65-27.04-23.69ZM116.25,176.03c-2.07-4.06-4.92-8.84-6.24-11.03.03-.03.04-.04.08-.08,1.33-.71,2.54-1.54,3.65-2.45,1.85-1.05,3.54-2.33,4.97-6.2,1.82-3.5,2.42-6.98,2.54-9.32,4.87,5.19,11.75,18.37,14.62,24.35-6.28,2.51-12.9,4.1-19.62,4.73ZM125.93,151.04c-1.8-2.65-3.56-4.86-5.11-6.14-.61-1.51-2.95-7.39-5.43-14.28l14.25-16.74c3.14.87,6.17,2.44,9.03,4.67,6.23,4.87,9.54,11.29,9.57,11.35l.1-.05c-.45,1.23-2.62,6.28-10.34,13.12l-12.07,8.08ZM130.1,112.77l6.36-9.83c2.78,3.4,5,5.52,6.04,6.45-1.57,2.57-2.88,5.19-3.76,7.74-2.75-2.03-5.64-3.51-8.64-4.36ZM129.09,112.62h0l-.13.15-14.05,16.5c-1.86-5.24-3.73-10.91-4.92-15.58-3.07-12,12.17-31.3,12.32-31.49.06-.12.39-.76.69-1.85,4.15,9.64,8.83,16.75,12.64,21.58l-6.55,10.69ZM100.46,147.24c2.33-.44,6.87-6.43,8.7-8.98l2.93,1.72c.64,1.17,4.87,9.12,4.24,13.04-.53,3.31-4.7,8.31-6.56,10.41-.27.16-.52.26-.83.17-3.05-.95-7.07-11.87-8.48-16.36ZM101.77,154.46c-2.72-2.98-7.26-7.93-9.45-10.11l-11.77-28.7c.15-2.1,1.41-21.34-1.38-31.13.65.91,1.26,1.83,1.82,2.78l.24.41.24-.07c.37.42,2.02,3.21,2.55,19.6-.44,1.21-3.1,10.04,5.82,26.18l9.38,13.97c.26.84,1.23,3.82,2.56,7.07ZM137.39,66.04c2,2.69,16.93,22.67,19.08,25.07.12.14.29.33.43.49-.56.55-7.34,7.23-12.71,15.16-.35.52-.68,1.06-1.02,1.59-2.68-2.41-12.24-11.88-19.75-30.1.17-1.25.21-2.77,0-4.51,3.06-2.1,11.01-7.2,13.96-7.7ZM157.72,92.53c2.42,2.78,6.08,7.12,6.74,7.89-.05,1.03-.49,6.27-3.52,8.31-.25.19-4.39,3.49-6.98,7.55h0l-1.05,1.94c-.13.29-.25.58-.35.88h0s-3.69,9.39-3.69,9.39c-1.08-1.87-4.1-6.61-9.09-10.62,3.64-11.07,17.04-24.44,17.95-25.34ZM177.45,124.48c-1.97,7.33-5.11,14.46-9.6,21.08-.69,1.02-1.47,1.95-2.21,2.93-6.84-8.41-9.99-11.44-11.87-13.26-1.76-1.69-2.41-2.34-4.08-5.51l4.34-11.03c.15-.33.31-.65.49-.98l22.93,6.76ZM152.92,161.49l-14-17.39c6.57-5.9,9.24-10.73,10.19-12.89,1.4,2.52,2.18,3.35,3.8,4.91,1.88,1.81,5.03,4.85,11.96,13.38-3.57,4.54-7.57,8.56-11.96,11.99ZM151.92,162.21c-4.65,3.49-9.66,6.37-14.93,8.59-1.2-2.47-5.77-11.72-10.39-18.76l11.13-7.45,14.19,17.63ZM160.29,167.05l15.74,5.71c-4.35,4.44-9.1,8.34-14.2,11.6l-2.91-1.64-.64-.44-.04.05-5.76-3.24s-6.28-2.67-14.65-7.35c5.25-2.24,10.24-5.11,14.87-8.6.92,1.07,1.4,1.28,3.9,2.32.91.38,2.1.88,3.69,1.58ZM114.9,176.1c-15.24,1.14-30.95-2.6-44.55-11.83-31.58-21.41-40.12-64.19-19.55-96.1,1.07-1.51,2.18-2.99,3.33-4.41,2.65,1.43,13.55,7.6,21.62,16.55l-.1.13c4.87,3.56,4.29,26.67,3.66,35.27l.04.28,12.01,29.15c3.13,3.1,11.6,12.46,11.68,12.56l.1-.09c1.55,3.3,3.37,6.24,5.17,7.01.39.62,3.99,6.51,6.58,11.49ZM149.14,48.07c20.55,13.93,31.31,36.93,30.7,60.08l-14.36-8.41c-.39-.46-5.92-7.01-8.09-9.44-2.22-2.48-19.08-25.08-19.25-25.31l-.07-.09-.1-.06c-1.29-.79-2.92-1.63-4.81-2.61-4.45-2.3-10-5.17-14.68-9.17-1.66-1.42-2.86-3.24-3.46-5.26l-3.49-11.71c13,.31,26.06,4.17,37.61,12ZM180.97,110.09l18.5,4.98c.02,3.8-.28,7.59-.79,11.38l-19.74-2.89c1.11-4.45,1.79-8.96,2.03-13.48ZM189.39,154.84l-.59-.09-22.18-5.51c.75-.99,1.55-1.94,2.25-2.99,4.58-6.75,7.77-14.03,9.78-21.5l19.86,2.91c-1.39,9.34-4.36,18.54-9.11,27.18ZM182.03,167.92c1.52-1.87,3.01-3.79,4.39-5.82,1.31-1.93,2.47-3.92,3.59-5.92l13.51,2.1c3.31,1.66,5.1,3.48,5.19,5.26.1,2.08-2.07,3.72-2.63,4.11l-24.05.28ZM176.92,171.8l-16.18-5.89c-1.56-.69-2.76-1.19-3.67-1.57-2.2-.92-2.69-1.14-3.37-1.91.19-.15.39-.26.57-.41l-.18.73,25.37,6.3c-.82.95-1.68,1.84-2.54,2.74ZM163.26,184.9c5.04-3.3,9.72-7.24,14.02-11.68l.27.1,22.82,2.21c8.12,1.15,10.33,3.32,10.76,4.94.65,2.48-2.34,5.15-3.08,5.77l-44.78-1.33ZM148.45,192.61c4.53-1.8,8.88-4.05,13.06-6.65l.16.11.74.02,16.23,9.14c5.14,4.61,3.5,8.87,2.05,11.01-.08.11-.15.21-.22.31l-25.25-11.03-6.77-2.92ZM41.25,85.98c-8.53,29,2.08,61.46,28.41,79.31,14,9.49,30.18,13.29,45.85,12.01.04.08.09.17.13.25,1.89,3.84,17.71,9.9,21.64,11.59l7.78,3.35c-23.74,8.42-51.02,5.94-73.42-9.25-32.12-21.78-43.8-62.51-30.39-97.26ZM163.58,47.65c22.8,15.46,35.27,40.48,35.83,66.13l-18.38-4.95c.85-23.78-10.1-47.47-31.2-61.78-15.07-10.22-32.66-13.81-49.43-11.58,21.1-4.54,43.94-.86,63.18,12.18Z" style="fill: #fff;"/>
    </g>
    <g id="uuid-d7a9e108-6354-4cb1-a1aa-cebc61c6d674" data-name="RAILIX">
      <g>
        <path d="M265.92,168.4l-17.24-37.62c-.18-.35-.44-.52-.78-.52h-15.67c-.44,0-.65.22-.65.65v37.09c0,.44-.15.81-.46,1.11s-.68.46-1.11.46h-12.02c-.44,0-.81-.15-1.11-.46-.31-.3-.46-.67-.46-1.11v-88.29c0-.43.15-.8.46-1.11s.67-.46,1.11-.46h35.92c5.31,0,10.01,1.11,14.11,3.33,4.09,2.22,7.27,5.36,9.53,9.4,2.26,4.05,3.4,8.69,3.4,13.91,0,6.01-1.55,11.12-4.64,15.35-3.09,4.22-7.38,7.16-12.87,8.82-.18,0-.31.09-.39.26-.09.18-.09.35,0,.52l18.42,38.01c.17.35.26.61.26.78,0,.7-.48,1.04-1.44,1.04h-12.54c-.87,0-1.48-.39-1.83-1.18ZM231.57,91.87v25.99c0,.44.22.65.65.65h19.59c4.18,0,7.55-1.24,10.12-3.72,2.57-2.48,3.85-5.77,3.85-9.86s-1.29-7.4-3.85-9.93c-2.57-2.52-5.94-3.79-10.12-3.79h-19.59c-.44,0-.65.22-.65.65Z" style="fill: #2f2f2f;"/>
        <path d="M351.86,168.27l-4.31-13.98c-.18-.35-.39-.52-.65-.52h-34.48c-.26,0-.48.18-.65.52l-4.31,13.98c-.26.87-.83,1.31-1.7,1.31h-13.06c-.52,0-.91-.15-1.18-.46-.26-.3-.31-.76-.13-1.37l28.34-88.29c.26-.87.83-1.31,1.7-1.31h16.33c.87,0,1.44.44,1.7,1.31l28.47,88.29c.09.18.13.39.13.65,0,.78-.48,1.18-1.44,1.18h-13.06c-.87,0-1.44-.43-1.7-1.31ZM316.33,141.89h26.51c.52,0,.7-.26.52-.78l-13.45-43.75c-.09-.35-.22-.52-.39-.52s-.31.18-.39.52l-13.32,43.75c-.09.52.09.78.52.78Z" style="fill: #2f2f2f;"/>
        <path d="M379.35,169.12c-.31-.3-.46-.67-.46-1.11v-88.29c0-.43.15-.8.46-1.11s.67-.46,1.11-.46h12.02c.43,0,.8.15,1.11.46.3.31.46.68.46,1.11v88.29c0,.44-.15.81-.46,1.11s-.68.46-1.11.46h-12.02c-.44,0-.81-.15-1.11-.46Z" style="fill: #2f2f2f;"/>
        <path d="M410.96,169.12c-.31-.3-.46-.67-.46-1.11v-88.29c0-.43.15-.8.46-1.11s.67-.46,1.11-.46h12.02c.43,0,.8.15,1.11.46.3.31.46.68.46,1.11v76.15c0,.44.22.65.65.65h43.75c.43,0,.8.15,1.11.46.3.31.46.68.46,1.11v9.93c0,.44-.15.81-.46,1.11s-.68.46-1.11.46h-57.99c-.44,0-.81-.15-1.11-.46Z" style="fill: #2f2f2f;"/>
        <path d="M482.92,169.12c-.31-.3-.46-.67-.46-1.11v-88.29c0-.43.15-.8.46-1.11s.67-.46,1.11-.46h12.02c.43,0,.8.15,1.11.46.3.31.46.68.46,1.11v88.29c0,.44-.15.81-.46,1.11s-.68.46-1.11.46h-12.02c-.44,0-.81-.15-1.11-.46Z" style="fill: #2f2f2f;"/>
        <path d="M509.04,169.12c-.22-.3-.15-.76.2-1.37l25.99-43.49c.17-.26.17-.52,0-.78l-25.99-43.49c-.18-.52-.26-.83-.26-.91,0-.61.43-.91,1.31-.91h13.06c.96,0,1.61.35,1.96,1.04l19.07,32.39c.26.52.52.52.78,0l19.2-32.39c.35-.7.96-1.04,1.83-1.04h13.06c.61,0,1.02.15,1.24.46.22.31.15.76-.2,1.37l-25.99,43.49c-.09.26-.09.52,0,.78l25.99,43.49c.17.52.26.83.26.91,0,.61-.44.91-1.31.91h-13.06c-.87,0-1.48-.35-1.83-1.04l-19.2-32.26c-.26-.52-.52-.52-.78,0l-19.2,32.26c-.35.7-.96,1.04-1.83,1.04h-13.06c-.61,0-1.02-.15-1.24-.46Z" style="fill: #2f2f2f;"/>
      </g>
    </g>
    <g id="uuid-ddb4b01f-9fd3-4477-8419-148122b065b1" data-name="O">
      <path id="uuid-1bcb35a2-04a0-47b2-a874-e47e89974d81" data-name="Blanc" d="M157.39,90.29c-2.22-2.48-19.08-25.08-19.25-25.31l-.07-.09-.1-.06c-1.29-.79-2.92-1.63-4.81-2.61-4.45-2.3-10-5.17-14.68-9.17-1.66-1.42-2.86-3.24-3.46-5.26l-3.49-11.71c13,.31,26.06,4.17,37.61,12,20.55,13.93,31.31,36.93,30.7,60.08l-14.36-8.41c-.39-.46-5.92-7.01-8.09-9.44Z" style="fill: #fff;"/>
      <path id="uuid-c57fa0a7-d8f2-479f-aee6-dc78fca79325" data-name="ENTRE DOIGTS" d="M154.09,162.76l25.37,6.3c-.82.95-1.68,1.84-2.54,2.74l-16.18-5.89c-1.56-.69-2.76-1.19-3.67-1.57-2.2-.92-2.57-.89-3.25-1.66" style="fill: #2f2f2f;"/>
      <path d="M166.62,149.24c.75-.99,1.55-1.94,2.25-2.99,4.58-6.75,7.77-14.03,9.78-21.5l19.86,2.91c-1.39,9.34-4.36,18.54-9.11,27.18l-.59-.09-22.18-5.51Z" style="fill: #2f2f2f;"/>
      <path id="uuid-00a3120e-9601-4c58-862f-3a28a07f7a13" data-name="Blanc" d="M75.75,80.31l-.1.13c4.87,3.56,4.29,26.67,3.66,35.27l.04.28,12.01,29.15c3.13,3.1,11.6,12.46,11.68,12.56l.1-.09c1.55,3.3,3.37,6.24,5.17,7.01.39.62,3.99,6.51,6.58,11.49-15.24,1.14-30.95-2.6-44.55-11.83-31.58-21.41-40.12-64.19-19.55-96.1,1.07-1.51,2.18-2.99,3.33-4.41,2.65,1.43,13.55,7.6,21.62,16.55Z" style="fill: #fff;"/>
      <path id="uuid-bb1ebdef-ff69-460d-b487-0bec67c8518b" data-name="blanc" d="M165.64,148.49c-6.84-8.41-9.99-11.44-11.87-13.26-1.76-1.69-2.41-2.34-4.08-5.51l4.34-11.03c.15-.33.31-.65.49-.98l22.93,6.76c-1.97,7.33-5.11,14.46-9.6,21.08-.69,1.02-1.47,1.95-2.21,2.93Z" style="fill: #fff;"/>
      <path d="M69.66,165.29c14,9.49,30.18,13.29,45.85,12.01.04.08.09.17.13.25,1.89,3.84,17.71,9.9,21.64,11.59l7.78,3.35c-23.74,8.42-51.02,5.94-73.42-9.25-32.12-21.78-43.8-62.51-30.39-97.26-8.53,29,2.08,61.46,28.41,79.31Z" style="fill: #2f2f2f;"/>
      <path d="M149.83,47.05c-15.07-10.22-32.66-13.81-49.43-11.58,21.1-4.54,43.94-.86,63.18,12.18,22.8,15.46,35.27,40.48,35.83,66.13l-18.38-4.95c.85-23.78-10.1-47.47-31.2-61.78Z" style="fill: #2f2f2f;"/>
    </g>
  </g>
</svg>